<?xml version="1.0" encoding="UTF-8" standalone="no"?>
<svg
   width="48"
   height="48"
   version="1.1"
   id="svg4"
   sodipodi:docname="northgard@48x48.svg"
   inkscape:version="1.3.2 (091e20ef0f, 2023-11-25)"
   xmlns:inkscape="http://www.inkscape.org/namespaces/inkscape"
   xmlns:sodipodi="http://sodipodi.sourceforge.net/DTD/sodipodi-0.dtd"
   xmlns="http://www.w3.org/2000/svg"
   xmlns:svg="http://www.w3.org/2000/svg">
  <defs
     id="defs4" />
  <sodipodi:namedview
     id="namedview4"
     pagecolor="#ffffff"
     bordercolor="#000000"
     borderopacity="0.25"
     inkscape:showpageshadow="2"
     inkscape:pageopacity="0.0"
     inkscape:pagecheckerboard="0"
     inkscape:deskcolor="#d1d1d1"
     inkscape:zoom="15.7128"
     inkscape:cx="19.25182"
     inkscape:cy="24.915992"
     inkscape:window-width="1803"
     inkscape:window-height="1202"
     inkscape:window-x="0"
     inkscape:window-y="0"
     inkscape:window-maximized="1"
     inkscape:current-layer="svg4" />
  <circle
     style="display:inline;opacity:0.2;fill:#000000;fill-opacity:1;stroke-width:1"
     cx="24"
     cy="25"
     id="circle6"
     inkscape:label="main shad"
     r="20"
     sodipodi:insensitive="true" />
  <circle
     style="display:inline;fill:#a06950;fill-opacity:1;stroke-width:0.8"
     cx="24"
     cy="24"
     id="circle4-3"
     inkscape:label="wood"
     r="16"
     sodipodi:insensitive="true" />
  <path
     id="path35"
     style="display:inline;opacity:0.5;fill:none;fill-opacity:1;stroke:#4b2e29;stroke-width:2;stroke-linecap:round;stroke-linejoin:round;stroke-dasharray:none;stroke-dashoffset:0;stroke-opacity:1;paint-order:stroke fill markers"
     d="M 27.981585,7.5086496 V 40.681083 Z m -7.857143,0.125558 V 40.431361 Z m 15.664062,3.8671874 v 25.299944 z m -23.574218,0.133929 v 24.85212 z"
     inkscape:label="wood stripes stroke"
     sodipodi:insensitive="true" />
  <path
     id="path10"
     style="display:inline;fill:none;fill-opacity:1;stroke:#4b2e29;stroke-width:1;stroke-linecap:round;stroke-linejoin:round;stroke-dasharray:none;stroke-dashoffset:0;stroke-opacity:1;paint-order:stroke fill markers"
     d="M 27.981585,7.5086496 V 40.681083 Z m -7.857143,0.125558 V 40.431361 Z m 15.664062,3.8671874 v 25.299944 z m -23.574218,0.133929 v 24.85212 z"
     inkscape:label="wood stripes"
     sodipodi:insensitive="true" />
  <path
     id="circle10"
     style="display:inline;fill:#9da8b4;fill-opacity:1;stroke-width:0.999997"
     inkscape:label="shield rim"
     d="M 24,4 A 20,20 0 0 0 4,24 20,20 0 0 0 24,44 20,20 0 0 0 44,24 20,20 0 0 0 24,4 Z m 0,4 A 16,16 0 0 1 40,24 16,16 0 0 1 24,40 16,16 0 0 1 8,24 16,16 0 0 1 24,8 Z"
     sodipodi:insensitive="true" />
  <path
     id="circle13"
     style="display:inline;opacity:0.1;fill:#020202;fill-opacity:1;stroke-width:0.85"
     inkscape:label="shield rim inner stroke"
     d="M 24,7 A 17,17 0 0 0 7,24 17,17 0 0 0 24,41 17,17 0 0 0 41,24 17,17 0 0 0 24,7 Z m 0,1 A 16,16 0 0 1 40,24 16,16 0 0 1 24,40 16,16 0 0 1 8,24 16,16 0 0 1 24,8 Z"
     sodipodi:insensitive="true" />
  <path
     id="circle11"
     style="display:inline;opacity:0.1;fill:#ffffff;fill-opacity:1;stroke-width:1"
     inkscape:label="top shad"
     d="M 24,4 A 20,20 0 0 0 4,24 20,20 0 0 0 4.0351562,24.5 20,20 0 0 1 24,5 20,20 0 0 1 43.982422,24.25 20,20 0 0 0 44,24 20,20 0 0 0 24,4 Z"
     sodipodi:insensitive="true" />
  <path
     id="path19-3"
     style="display:inline;opacity:0.2;fill:#000000;fill-opacity:1;stroke:none;stroke-width:0.714285;stroke-linecap:round;stroke-linejoin:round;stroke-dasharray:none;stroke-dashoffset:0;stroke-opacity:1;paint-order:stroke fill markers"
     inkscape:label="center + crest shad"
     d="m 12.200469,13.056359 c -0.174182,0.167357 -3.8359337,3.703788 -6.2011721,7.695313 l 0.4746094,0.779297 1.4882812,0.126953 c -0.1236878,-0.2219 -0.1877501,-0.470571 -0.1894531,-0.72461 -4.7e-5,-0.834453 0.6753132,-1.511765 1.5097656,-1.511718 0.834453,-4.7e-5 1.511766,0.677265 1.511719,1.511718 -7.14e-4,0.83391 -0.677811,1.50786 -1.511719,1.507813 -0.05131,-0.0011 -0.1014139,-0.0035 -0.1523437,-0.0098 -3.2731703,4.558192 -2.5933882,9.860514 3.1054687,13.703125 l 0.980469,-1.1875 c -5.4759699,-5.574023 0.545515,-8.65436 0.568359,-8.666015 A 7,7 0 0 0 20.595,31.738 7,7 0 0 0 27.405547,26.280969 c 0.01408,0.0072 6.050281,3.087921 0.570312,8.666015 l 0.980469,1.1875 c 5.698857,-3.842611 6.378639,-9.144933 3.105469,-13.703125 -0.05093,0.0063 -0.101034,0.0087 -0.152344,0.0098 -0.833908,4.7e-5 -1.511005,-0.673903 -1.511719,-1.507813 -4.7e-5,-0.834453 0.677266,-1.511765 1.511719,-1.511718 0.834452,-4.7e-5 1.509813,0.677265 1.509766,1.511718 -0.0017,0.254039 -0.06576,0.50271 -0.189453,0.72461 l 1.488281,-0.126953 0.474609,-0.779297 c -2.365238,-3.991525 -6.02699,-7.527956 -6.201172,-7.695313 l 0.07227,1.78125 1.416016,1.072266 -0.03516,0.472656 -1.349609,-0.773437 0.05273,1.330078 -0.02539,0.02539 0.613281,0.335938 c 0,0 -1.44547,1.233152 -1.96875,2.794922 -0.200797,1.069353 0.292969,3.294922 0.292969,3.294922 L 27.358672,22.941125 A 7,7 0 0 0 20.595,17.738 7,7 0 0 0 13.841094,22.935266 l -0.708985,0.455078 c 0,0 0.493766,-2.225569 0.292969,-3.294922 -0.52328,-1.56177 -1.96875,-2.794922 -1.96875,-2.794922 l 0.613281,-0.335938 -0.02539,-0.02539 0.05273,-1.330078 -1.349609,0.773437 -0.03516,-0.472656 1.416015,-1.072266 z"
     transform="translate(3.405,0.262)"
     sodipodi:insensitive="true" />
  <circle
     style="display:inline;fill:#9da8b4;fill-opacity:1;stroke-width:0.349999"
     cx="24"
     cy="24"
     id="circle5"
     inkscape:label="center"
     r="7"
     sodipodi:insensitive="true" />
  <path
     id="path25"
     style="display:inline;fill:#9da8b4;fill-opacity:1;stroke:none;stroke-width:0.714285;stroke-linecap:round;stroke-linejoin:round;stroke-dasharray:none;stroke-dashoffset:0;stroke-opacity:1;paint-order:stroke fill markers"
     inkscape:label="crest"
     d="m 15.661551,12.261719 c -0.01258,0.01202 -3.838436,3.669642 -6.2569753,7.751116 l 0.4729357,0.779855 1.4899546,0.126953 c -0.123688,-0.2219 -0.189424,-0.471408 -0.191127,-0.725447 -4.7e-5,-0.834455 0.676428,-1.510928 1.510882,-1.510881 0.834455,-4.7e-5 1.510929,0.676426 1.510882,1.510881 -7.14e-4,0.83391 -0.676972,1.509534 -1.510882,1.509487 -0.05131,-0.0011 -0.10253,-0.0049 -0.15346,-0.01116 -3.2731767,4.5582 -2.5920046,9.861343 3.106864,13.703962 l 0.979353,-1.187221 c -5.486372,-5.584612 0.571986,-8.669081 0.571986,-8.669081 l 0.05441,-3.342635 -0.7101,0.4548 c 0,0 0.493766,-2.225846 0.292969,-3.295201 -0.523282,-1.561772 -1.968471,-2.794364 -1.968471,-2.794364 l 0.631975,-0.345982 0.05859,-1.375558 -1.399274,0.802176 -0.03627,-0.47154 1.460659,-1.104911 0.06278,-1.273716 z m 16.676898,0 0.02232,0.531529 0.06278,1.273716 1.460658,1.104911 -0.03627,0.47154 -1.399275,-0.802176 0.05859,1.375558 0.631976,0.345982 c 0,0 -1.445189,1.232592 -1.968471,2.794364 -0.200798,1.069355 0.292969,3.295201 0.292969,3.295201 l -0.710101,-0.4548 0.05441,3.342635 c 0,0 6.058358,3.084469 0.571987,8.669085 l 0.979353,1.18722 c 5.698868,-3.842618 6.38004,-9.145762 3.106863,-13.703962 -0.05093,0.0063 -0.102152,0.01002 -0.153459,0.01116 -0.833911,4.8e-5 -1.510168,-0.675576 -1.510882,-1.509486 -4.7e-5,-0.834455 0.676427,-1.510929 1.510882,-1.510881 0.834453,-4.8e-5 1.510928,0.676426 1.510881,1.510881 -0.0017,0.254039 -0.06743,0.503546 -0.191127,0.725446 l 1.489955,-0.126952 0.472936,-0.779855 c -2.418539,-4.081478 -6.244397,-7.739099 -6.256975,-7.75112 z"
     sodipodi:insensitive="true" />
  <path
     id="circle22"
     style="display:inline;opacity:0.1;fill:#ffffff;fill-opacity:1;stroke-width:0.357127"
     inkscape:label="center + crest top shad"
     d="m 15.662109,12.261719 c -0.01258,0.01201 -3.839276,3.66892 -6.2578121,7.75 l 0.3040466,0.495407 c 2.3908575,-3.882461 5.8141895,-7.395391 5.9205625,-7.49736 l 0.01172,-0.216797 z m 16.677735,0 0.02148,0.53125 0.01172,0.216797 c 0.106373,0.101969 3.531805,3.6224 5.922661,7.504861 L 38.5957,20.011719 c -2.418538,-4.08108 -6.24328,-7.737979 -6.255859,-7.75 z m -16.78711,2.580078 -1.40039,0.800781 -0.002,-0.03711 -0.01172,0.0078 0.01367,0.744141 1.36914,-0.783203 z m 16.896485,0 0.03125,0.732422 1.367187,0.783203 0.01563,-0.744141 -0.01172,-0.0078 -0.0039,0.03711 z m -17.587891,1.716797 v 0.71875 c 0,0 1.445468,1.231349 1.96875,2.792968 0.01723,0.09174 0.0274,0.19611 0.03516,0.302735 0.02123,-0.377255 0.01735,-0.736031 -0.03516,-1.015625 -0.392947,-1.199987 -1.43178,-2.316053 -1.96875,-2.798828 z m 18.279297,0 c -0.536968,0.482775 -1.575801,1.598841 -1.96875,2.798828 -0.05251,0.279594 -0.05639,0.63837 -0.03516,1.015625 0.0078,-0.106625 0.01793,-0.210996 0.03516,-0.302735 0.523283,-1.561619 1.96875,-2.792968 1.96875,-2.792968 z M 24,17 c -3.205438,0.002 -5.959732,2.172785 -6.761719,5.205078 l -0.699219,0.44336 -0.01562,0.714843 c 0.120948,-0.07625 0.354082,-0.219184 0.548828,-0.335937 0.02791,-0.01678 0.05587,-0.03397 0.08398,-0.05078 0.06697,-0.04006 0.134399,-0.07973 0.201172,-0.11914 C 18.285644,19.970334 20.96738,18.0093 24,18 c 3.060847,0.0055 5.76319,1.999016 6.671875,4.921875 l 0.05859,0.03125 c 6.3e-5,4.68e-4 -6.2e-5,0.0015 0,0.002 0.185202,0.09952 0.572992,0.302034 0.746093,0.408203 l -0.01367,-0.714843 -0.697266,-0.44336 C 29.963824,19.17239 27.208838,16.999863 24,17 Z m 9.800781,3.189453 v 0.714844 c 0,0.834428 0.673307,1.511891 1.507813,1.511719 0.05526,7e-6 0.10843,-0.002 0.162109,-0.0078 v 0.0039 c 1.199899,1.672744 1.865006,3.444857 1.947266,5.208985 0.07819,-1.786616 -0.451929,-3.595424 -1.539063,-5.316406 -0.01795,-0.02841 -0.03649,-0.05757 -0.05469,-0.08594 -0.0147,-0.02284 -0.03003,-0.04553 -0.04492,-0.06836 -0.0306,-0.04685 -0.06038,-0.0939 -0.0918,-0.140625 -0.0028,-0.0042 -0.005,-0.0076 -0.0078,-0.01172 -0.06348,-0.09464 -0.13008,-0.189158 -0.197266,-0.283203 -0.0039,-0.0055 -0.0078,-0.01209 -0.01172,-0.01758 -0.0014,-0.0019 -0.0026,-0.004 -0.0039,-0.0059 -0.05093,0.0063 -0.102989,0.01058 -0.154297,0.01172 -0.83391,4.8e-5 -1.509052,-0.675933 -1.509766,-1.509766 v -0.002 z m -19.601562,0.0039 c -7.14e-4,0.833833 -0.677808,1.509813 -1.511719,1.509766 -0.05131,-0.0011 -0.101414,-0.0055 -0.152344,-0.01172 -0.0014,0.0019 -0.0046,0.004 -0.0059,0.0059 -0.0039,0.0055 -0.0058,0.01208 -0.0098,0.01758 -0.06719,0.09405 -0.133789,0.188561 -0.197265,0.283203 -0.0028,0.0042 -0.005,0.0076 -0.0078,0.01172 -0.03142,0.04672 -0.06315,0.09377 -0.09375,0.140625 -0.01489,0.0228 -0.02827,0.0455 -0.04297,0.06836 -0.0182,0.02835 -0.03674,0.0575 -0.05469,0.08594 -1.087133,1.720982 -1.619202,3.52979 -1.541016,5.316406 0.08226,-1.764129 0.747367,-3.536242 1.947266,-5.208985 v -0.0039 c 0.05368,0.0058 0.108799,0.0078 0.164062,0.0078 0.834509,1.73e-4 1.50586,-0.675337 1.50586,-1.509766 v -0.002 z m 0.138672,9.892579 c -0.115169,1.225538 0.221384,2.88713 1.840911,4.653961 l 0.442292,-0.532868 C 15.071105,32.62944 14.44192,31.25129 14.337891,30.085938 Z m 19.324218,0 c -0.104029,1.165352 -0.731262,2.543502 -2.28125,4.121093 l 0.438736,0.536866 c 1.619527,-1.766831 1.957682,-3.432421 1.842514,-4.657959 z"
     sodipodi:nodetypes="cccccccccccscccccccccccccccccccccccccccccccccccccccccccsccccsccccccccscccccccccsccccccscccccsccccc" />
  <circle
     style="display:inline;opacity:0.2;fill:#000000;fill-opacity:1;stroke-width:0.249999"
     cx="24"
     cy="25"
     id="circle8"
     inkscape:label="bump shad"
     sodipodi:insensitive="true"
     r="5" />
  <circle
     style="display:inline;fill:#717d8a;fill-opacity:1;stroke-width:0.249999"
     cx="23.999992"
     cy="24"
     id="circle9"
     inkscape:label="bump"
     sodipodi:insensitive="true"
     r="5" />
  <path
     style="display:inline;fill:none;fill-opacity:1;stroke:#2e2e38;stroke-width:1.11893;stroke-linecap:round;stroke-linejoin:round;stroke-dasharray:none;stroke-opacity:1;paint-order:stroke fill markers"
     d="M 22.059466,26.420341 V 21.5594 l 3.881068,3.28625 v -3.090075 5.18495"
     id="path8"
     sodipodi:nodetypes="ccccc"
     inkscape:label="N"
     sodipodi:insensitive="true" />
</svg>
