<?xml version="1.0" encoding="UTF-8" standalone="no"?>
<svg
   width="64"
   height="64"
   version="1.1"
   id="svg4"
   sodipodi:docname="northgard@64x64.svg"
   xml:space="preserve"
   inkscape:version="1.3.2 (091e20ef0f, 2023-11-25)"
   inkscape:export-filename="../../../../../../../../../Downloads/northgard_64x64.png"
   inkscape:export-xdpi="768"
   inkscape:export-ydpi="768"
   xmlns:inkscape="http://www.inkscape.org/namespaces/inkscape"
   xmlns:sodipodi="http://sodipodi.sourceforge.net/DTD/sodipodi-0.dtd"
   xmlns="http://www.w3.org/2000/svg"
   xmlns:svg="http://www.w3.org/2000/svg"><defs
     id="defs4" /><sodipodi:namedview
     id="namedview4"
     pagecolor="#ffffff"
     bordercolor="#000000"
     borderopacity="0.25"
     inkscape:showpageshadow="2"
     inkscape:pageopacity="0.0"
     inkscape:pagecheckerboard="0"
     inkscape:deskcolor="#d1d1d1"
     inkscape:zoom="1"
     inkscape:cx="27"
     inkscape:cy="36.5"
     inkscape:window-width="1803"
     inkscape:window-height="1202"
     inkscape:window-x="0"
     inkscape:window-y="0"
     inkscape:window-maximized="1"
     inkscape:current-layer="svg4" /><circle
     style="display:inline;opacity:0.2;fill:#000000;fill-opacity:1;stroke-width:1.4"
     cx="32"
     cy="33"
     id="circle6"
     inkscape:label="main shad"
     r="28"
     sodipodi:insensitive="true" /><circle
     style="display:inline;fill:#a06950;fill-opacity:1;stroke-width:1.15"
     cx="32"
     cy="32"
     id="circle4"
     r="23"
     inkscape:label="wood"
     sodipodi:insensitive="true" /><path
     id="path35"
     style="display:inline;opacity:0.5;fill:none;fill-opacity:1;stroke:#4b2e29;stroke-width:2;stroke-linecap:round;stroke-linejoin:round;stroke-dasharray:none;stroke-dashoffset:0;stroke-opacity:1;paint-order:stroke fill markers"
     d="M 37.574219,8.9121094 V 55.353516 Z m -11,0.1757812 V 55.003906 Z M 48.503906,14.501953 V 49.921875 Z M 15.5,14.689453 v 34.792969 z"
     inkscape:label="wood stripes stroke" /><path
     id="path10"
     style="display:inline;opacity:1;fill:none;fill-opacity:1;stroke:#4b2e29;stroke-width:1;stroke-linecap:round;stroke-linejoin:round;stroke-dasharray:none;stroke-dashoffset:0;stroke-opacity:1;paint-order:stroke fill markers"
     d="M 37.574219,8.9121094 V 55.353516 Z m -11,0.1757812 V 55.003906 Z M 48.503906,14.501953 V 49.921875 Z M 15.5,14.689453 v 34.792969 z"
     inkscape:label="wood stripes"
     sodipodi:insensitive="true" /><path
     id="circle2"
     style="display:inline;fill:#9da8b4;fill-opacity:1;stroke-width:0.999998"
     d="M 32,4 A 28,28 0 0 0 4,32 28,28 0 0 0 32,60 28,28 0 0 0 60,32 28,28 0 0 0 32,4 Z m 0,5 A 23,23 0 0 1 55,32 23,23 0 0 1 32,55 23,23 0 0 1 9,32 23,23 0 0 1 32,9 Z"
     inkscape:label="shield rim"
     sodipodi:insensitive="true" /><path
     id="circle7"
     style="display:inline;opacity:0.1;fill:#010100;fill-opacity:1;stroke-width:1.2"
     inkscape:label="rim inner stroke"
     d="M 32,8 A 24,24 0 0 0 8,32 24,24 0 0 0 32,56 24,24 0 0 0 56,32 24,24 0 0 0 32,8 Z m 0,1 A 23,23 0 0 1 55,32 23,23 0 0 1 32,55 23,23 0 0 1 9,32 23,23 0 0 1 32,9 Z"
     sodipodi:insensitive="true" /><path
     id="circle23"
     style="display:inline;opacity:0.1;fill:#ffffff;fill-opacity:1;stroke-width:1.4"
     inkscape:label="main top shad"
     d="M 32,4 A 28,28 0 0 0 4,32 28,28 0 0 0 4.0351562,32.5 28,28 0 0 1 32,5 28,28 0 0 1 59.982422,32.251953 28,28 0 0 0 60,32 28,28 0 0 0 32,4 Z" /><path
     id="circle3"
     style="display:inline;opacity:0.2;fill:#000000;fill-opacity:1;stroke-width:0.5"
     inkscape:label="center + crest shad"
     d="m 20.277344,16.566406 c -0.01761,0.01683 -5.324986,5.137505 -8.710938,10.851563 l 0.66211,1.091797 2.085937,0.177734 c -0.173164,-0.31066 -0.265194,-0.659971 -0.267578,-1.015625 -6.6e-5,-1.168236 0.947001,-2.1153 2.115234,-2.115234 1.168236,-6.6e-5 2.115301,0.946998 2.115235,2.115234 -10e-4,1.167473 -0.947761,2.113347 -2.115235,2.113281 -0.07183,-0.0016 -0.143541,-0.0068 -0.214843,-0.01563 -4.582444,6.381474 -3.628799,13.805887 4.349609,19.185547 l 1.371094,-1.662109 C 14.495073,39.991633 21.336126,35.791816 22.283203,35.261719 A 10,10 0 0 0 32,43 10,10 0 0 0 41.716797,35.261719 c 0.947077,0.530097 7.78813,4.729909 0.615234,12.03125 l 1.371094,1.662109 c 7.978408,-5.37966 8.932053,-12.804073 4.349609,-19.185547 -0.0713,0.0088 -0.143013,0.01403 -0.214843,0.01563 -1.167474,6.6e-5 -2.114235,-0.945808 -2.115235,-2.113281 -6.6e-5,-1.168236 0.946999,-2.1153 2.115235,-2.115234 1.168233,-6.6e-5 2.1153,0.946998 2.115234,2.115234 -0.0024,0.355654 -0.09441,0.704965 -0.267578,1.015625 l 2.085937,-0.177734 0.66211,-1.091797 C 49.047637,21.703906 43.740266,16.583236 43.722656,16.566406 l 0.115235,2.527344 2,1.546875 -0.05078,0.660156 -1.916015,-1.123047 0.07813,1.939454 0.845703,0.470703 c 0,0 -2.023265,1.725631 -2.75586,3.912109 -0.281115,1.497096 0.410157,4.613281 0.410157,4.613281 L 41.71875,30.644531 A 10,10 0 0 0 32,23 10,10 0 0 0 22.306641,30.628906 l -0.75586,0.484375 c 0,0 0.691272,-3.116185 0.410157,-4.613281 -0.732595,-2.186478 -2.75586,-3.912109 -2.75586,-3.912109 l 0.845703,-0.470703 0.07813,-1.939454 -1.916015,1.123047 -0.05078,-0.660156 2,-1.546875 z"
     sodipodi:insensitive="true" /><circle
     style="display:inline;fill:#9da8b4;fill-opacity:1;stroke-width:0.499999"
     cx="32"
     cy="32"
     id="circle5"
     r="10"
     inkscape:label="center"
     sodipodi:insensitive="true" /><path
     id="path25"
     style="display:inline;opacity:1;fill:#9da8b4;fill-opacity:1;stroke:none;stroke-width:1;stroke-linecap:round;stroke-linejoin:round;stroke-dasharray:none;stroke-dashoffset:0;stroke-opacity:1;paint-order:stroke fill markers"
     inkscape:label="crest"
     d="m 20.326172,15.566406 c -0.01761,0.01683 -5.373811,5.1375 -8.759766,10.851563 l 0.66211,1.091797 2.085937,0.177734 c -0.173164,-0.31066 -0.265194,-0.659971 -0.267578,-1.015625 -6.6e-5,-1.168237 0.946999,-2.1153 2.115234,-2.115234 1.168237,-6.6e-5 2.115301,0.946997 2.115235,2.115234 -10e-4,1.167474 -0.94776,2.113347 -2.115235,2.113281 -0.07183,-0.0016 -0.143541,-0.0068 -0.214843,-0.01563 -4.582448,6.38148 -3.628807,13.805881 4.349609,19.185547 l 1.371094,-1.662109 C 13.987049,38.474507 22.46875,34.15625 22.46875,34.15625 l 0.07617,-4.679688 -0.994141,0.636719 c 0,0 0.691273,-3.116184 0.410157,-4.613281 -0.732595,-2.18648 -2.75586,-3.912109 -2.75586,-3.912109 l 0.884766,-0.484375 0.08203,-1.925782 -1.958984,1.123047 -0.05078,-0.660156 2.044922,-1.546875 0.08789,-1.783203 z m 23.347656,0 0.03125,0.744141 0.08789,1.783203 2.044922,1.546875 -0.05078,0.660156 -1.958984,-1.123047 0.08203,1.925782 0.884766,0.484375 c 0,0 -2.023265,1.725629 -2.75586,3.912109 -0.281116,1.497097 0.410157,4.613281 0.410157,4.613281 l -0.994141,-0.636719 0.07617,4.679688 c 0,0 8.481701,4.318257 0.800781,12.136719 l 1.371094,1.662109 c 7.978416,-5.379666 8.932057,-12.804067 4.349609,-19.185547 -0.0713,0.0088 -0.143013,0.01403 -0.214843,0.01563 -1.167475,6.6e-5 -2.114235,-0.945807 -2.115235,-2.113281 -6.6e-5,-1.168237 0.946998,-2.1153 2.115235,-2.115234 1.168235,-6.6e-5 2.1153,0.946997 2.115234,2.115234 -0.0024,0.355654 -0.09441,0.704965 -0.267578,1.015625 l 2.085937,-0.177734 0.66211,-1.091797 C 49.047639,20.703906 43.691438,15.583236 43.673828,15.566406 Z"
     sodipodi:insensitive="true" /><path
     id="circle22"
     style="display:inline;opacity:0.2;fill:#ffffff;fill-opacity:1;stroke-width:0.5"
     inkscape:label="center + crest top shad"
     d="m 20.326172,15.566406 c -0.01761,0.01683 -5.373826,5.137525 -8.759766,10.851563 l 0.306641,0.503906 c 3.347189,-5.435946 8.257329,-10.165824 8.40625,-10.308594 l 0.01563,-0.302734 z m 23.347656,0 0.03125,0.744141 0.01563,0.302734 c 0.148921,0.14277 5.059061,4.872648 8.40625,10.308594 l 0.306641,-0.503906 C 49.047654,20.703931 43.691438,15.583236 43.673828,15.566406 Z m -23.501953,3.611328 -1.958984,1.123047 -0.0039,-0.05273 -0.01563,0.0098 0.01953,1.042969 1.916015,-1.097656 z m 23.65625,0 0.04297,1.025391 1.916015,1.097656 0.01953,-1.042969 -0.01563,-0.0098 -0.0039,0.05273 z m -24.623047,2.404297 v 1.00586 c 0,0 2.023265,1.725639 2.75586,3.912109 0.02412,0.128445 0.03797,0.272584 0.04883,0.421875 0.02972,-0.528206 0.02468,-1.030409 -0.04883,-1.421875 -0.550126,-1.680136 -2.004106,-3.24202 -2.75586,-3.917969 z m 25.589844,0 c -0.751754,0.675949 -2.205734,2.237833 -2.75586,3.917969 -0.07351,0.391466 -0.07855,0.893669 -0.04883,1.421875 0.01086,-0.149291 0.02471,-0.29343 0.04883,-0.421875 0.732595,-2.18647 2.75586,-3.912109 2.75586,-3.912109 z M 32,22 a 10,10 0 0 0 -9.703125,7.638672 l -0.744141,0.470703 -0.01953,1 0.548828,-0.328125 a 10,10 0 0 0 -0.002,0.0078 l 0.244141,-0.140624 A 10,10 0 0 1 32,23 a 10,10 0 0 1 9.699219,7.648438 l 0.183593,0.111328 0.04102,0.02539 0.542969,0.324219 -0.01953,-1 -0.742188,-0.46875 A 10,10 0 0 0 32,22 Z m -13.720703,4.666016 -0.002,0.002 c 2e-6,0.0013 0,0.0026 0,0.0039 -0.001,1.167471 -0.947763,2.113347 -2.115235,2.113281 -0.07183,-0.0016 -0.143541,-0.0068 -0.214843,-0.01563 -0.0019,0.0027 -0.004,0.0052 -0.0059,0.0078 -0.0055,0.0077 -0.01012,0.01573 -0.01563,0.02344 -0.09406,0.131675 -0.186524,0.263973 -0.27539,0.396485 -0.0039,0.0059 -0.0078,0.0117 -0.01172,0.01758 -0.04399,0.06541 -0.08607,0.131662 -0.128906,0.197265 -0.02085,0.03194 -0.04192,0.06372 -0.0625,0.0957 -0.02548,0.03971 -0.05104,0.07936 -0.07617,0.119141 -1.521982,2.409595 -2.265709,4.943819 -2.15625,7.445313 0.115163,-2.470008 1.046709,-4.952867 2.726562,-7.294922 v -0.0059 c 0.07515,0.0081 0.151147,0.01173 0.228516,0.01172 1.168306,2.41e-4 2.109375,-0.946928 2.109375,-2.115234 v -0.002 z m 27.441406,0 v 1 0.002 c 0,1.168306 0.941069,2.115475 2.109375,2.115234 0.07737,10e-6 0.153366,-0.0036 0.228516,-0.01172 v 0.0059 c 1.679853,2.342055 2.611399,4.824914 2.726562,7.294922 0.109459,-2.501494 -0.634268,-5.035718 -2.15625,-7.445313 -0.02513,-0.03978 -0.05069,-0.07943 -0.07617,-0.119141 -0.02058,-0.03198 -0.04165,-0.06376 -0.0625,-0.0957 -0.04284,-0.0656 -0.08492,-0.131855 -0.128906,-0.197265 -0.0039,-0.0059 -0.0078,-0.01168 -0.01172,-0.01758 -0.08887,-0.132512 -0.18133,-0.26481 -0.27539,-0.396485 -0.0055,-0.0077 -0.01013,-0.01574 -0.01563,-0.02344 -0.0019,-0.0026 -0.004,-0.0051 -0.0059,-0.0078 -0.0713,0.0088 -0.143013,0.01403 -0.214843,0.01563 -1.167472,6.6e-5 -2.114235,-0.94581 -2.115235,-2.113281 0,-0.0013 -2e-6,-0.0026 0,-0.0039 z M 18.472656,40.523438 c -0.161235,1.71591 0.490484,3.826992 2.757813,6.300781 l 0.4375,-0.53125 c -2.169976,-2.208834 -3.049673,-4.137888 -3.195313,-5.769531 z m 27.054688,0 c -0.14564,1.631643 -1.025337,3.560697 -3.195313,5.769531 l 0.4375,0.53125 c 2.267329,-2.473789 2.919048,-4.584871 2.757813,-6.300781 z"
     sodipodi:insensitive="true" /><circle
     style="display:inline;opacity:0.2;fill:#000000;fill-opacity:1;stroke-width:0.3"
     cx="32"
     cy="33"
     id="circle8"
     inkscape:label="bump shad"
     r="6"
     sodipodi:insensitive="true" /><circle
     style="display:inline;fill:#717d8a;fill-opacity:1;stroke-width:0.3"
     cx="32"
     cy="32"
     id="circle9"
     inkscape:label="bump"
     r="6"
     sodipodi:insensitive="true" /><path
     style="display:inline;opacity:1;fill:none;fill-opacity:1;stroke:#2e2e38;stroke-width:1;stroke-linecap:round;stroke-linejoin:round;stroke-dasharray:none;stroke-opacity:1;paint-order:stroke fill markers"
     d="m 29.597665,34.744526 v -6.146932 l 4.80466,4.155648 v -3.907573 6.556662"
     id="path8"
     sodipodi:nodetypes="ccccc"
     inkscape:label="N" /></svg>
