<?xml version="1.0" encoding="UTF-8" standalone="no"?>
<svg
   width="22"
   height="22"
   version="1.1"
   id="svg4"
   sodipodi:docname="proton-mail@22x22.svg"
   inkscape:version="1.3.2 (091e20ef0f, 2023-11-25)"
   xmlns:inkscape="http://www.inkscape.org/namespaces/inkscape"
   xmlns:sodipodi="http://sodipodi.sourceforge.net/DTD/sodipodi-0.dtd"
   xmlns="http://www.w3.org/2000/svg"
   xmlns:svg="http://www.w3.org/2000/svg">
  <defs
     id="defs4" />
  <sodipodi:namedview
     id="namedview4"
     pagecolor="#ffffff"
     bordercolor="#000000"
     borderopacity="0.25"
     inkscape:showpageshadow="2"
     inkscape:pageopacity="0.0"
     inkscape:pagecheckerboard="0"
     inkscape:deskcolor="#d1d1d1"
     inkscape:zoom="26.484439"
     inkscape:cx="7.022992"
     inkscape:cy="14.159258"
     inkscape:window-width="1803"
     inkscape:window-height="1121"
     inkscape:window-x="0"
     inkscape:window-y="0"
     inkscape:window-maximized="1"
     inkscape:current-layer="g5" />
  <g
     id="g5"
     transform="matrix(0.35714286,0,0,0.3499962,2.4285715,3.3299962)"
     style="display:inline"
     inkscape:label="g1">
    <path
       id="path19-7-6-7"
       style="display:inline;fill:#b7a4f1;fill-opacity:1;stroke-width:0.545147"
       inkscape:label="base"
       d="m 50.216797,-3.7936269 c -0.29172,0.027499 -0.580737,0.1449366 -0.830079,0.3710937 L 24,18.200509 -1.386719,-3.4225332 c -1.0407108,-0.888932 -2.6132811,-0.089892 -2.6132811,1.2675777 v 0.9999998 38.9268057 1.00001 c 0,2.803424 3.00398382,6.000065 5.8007812,6.000066 H 46.164063 C 49.387686,44.771926 52,42.190477 52,38.77186 V 37.77185 -1.1554018 -2.1549555 c 0,-0.9973292 -0.908042,-1.7211697 -1.783203,-1.6386714 z"
       sodipodi:nodetypes="scccsccssssccss" />
    <path
       id="path19-7-6"
       style="display:inline;opacity:0.2;fill:#000000;fill-opacity:1;stroke-width:0.545148"
       inkscape:label="dropshadow"
       d="m -4.0000001,38.77186 v 1.428587 c 0,2.803423 3.00281462,6.000116 5.7996093,6.000066 L 46.164845,46.199731 C 49.388465,46.199674 52,43.618283 52,40.199667 V 38.77186 c 0,3.418615 -2.611535,6.000066 -5.835155,6.000066 H 1.7996092 c -2.79679423,0 -5.7996093,-3.196643 -5.7996093,-6.000066 z"
       sodipodi:nodetypes="csssscssc" />
    <path
       id="path19-7-6-2"
       style="display:inline;opacity:0.2;fill:#ffffff;fill-opacity:1;stroke-width:0.545148"
       inkscape:label="topshadow (base)"
       d="M 49.386719,-3.4225332 24,18.200209 -1.3867188,-3.4225332 C -2.4274297,-4.3114653 -4,-3.5124247 -4,-2.1549551 v 1.42924379 C -4,-2.0831809 -2.4274297,-2.8832286 -1.3867188,-1.9942965 L 24,19.628795 49.386719,-1.9942965 C 50.384084,-2.8989246 52,-2.0554839 52,-0.72571131 V -2.1549551 c 0,-1.3649294 -1.642538,-2.1480608 -2.613281,-1.2675781 z"
       sodipodi:nodetypes="cccscccccsc" />
    <path
       id="path10"
       style="display:inline;fill:#6841df;fill-opacity:1;stroke-width:0.525534"
       inkscape:label="M"
       d="M 39.399999,5.0857804 20.099609,21.524733 c -1.900015,1.688646 -4.153945,1.631242 -6.099609,0 L -4,6.2005137 V 7.2005135 38.77186 c 0,2.802586 2.9983098,6.000066 5.8007812,6.000066 H 39.399999 Z"
       sodipodi:nodetypes="cccccsscc" />
    <path
       id="path10-5"
       style="display:inline;opacity:0.2;fill:#ffffff;fill-opacity:1;stroke-width:0.525534"
       inkscape:label="topshadow (M)"
       d="m 39.399599,5.071221 -19.29999,16.453512 c -1.900015,1.688646 -4.153945,1.631242 -6.099609,0 L -4,6.2005137 V 7.6286651 L 14,22.954546 c 1.945664,1.631242 4.199594,1.688646 6.099609,0 L 39.4004,6.5000814 Z"
       sodipodi:nodetypes="ccccccccc" />
  </g>
</svg>
