<?xml version="1.0" encoding="UTF-8" standalone="no"?>
<svg
   width="64"
   height="64"
   version="1.1"
   id="svg4"
   sodipodi:docname="proton-mail@64x64.svg"
   inkscape:version="1.3.2 (091e20ef0f, 2023-11-25)"
   xmlns:inkscape="http://www.inkscape.org/namespaces/inkscape"
   xmlns:sodipodi="http://sodipodi.sourceforge.net/DTD/sodipodi-0.dtd"
   xmlns="http://www.w3.org/2000/svg"
   xmlns:svg="http://www.w3.org/2000/svg">
  <defs
     id="defs4" />
  <sodipodi:namedview
     id="namedview4"
     pagecolor="#ffffff"
     bordercolor="#000000"
     borderopacity="0.25"
     inkscape:showpageshadow="2"
     inkscape:pageopacity="0.0"
     inkscape:pagecheckerboard="0"
     inkscape:deskcolor="#d1d1d1"
     showguides="true"
     inkscape:zoom="99.307727"
     inkscape:cx="56.722676"
     inkscape:cy="50.419037"
     inkscape:window-width="1803"
     inkscape:window-height="1121"
     inkscape:window-x="0"
     inkscape:window-y="0"
     inkscape:window-maximized="1"
     inkscape:current-layer="svg4" />
  <g
     id="g1">
    <path
       id="path19-7-3"
       style="display:inline;opacity:0.2;fill:#000000;fill-opacity:1;stroke-width:0.545145"
       inkscape:label="dropshadow (base)"
       d="m 4,49.999532 v 0.999989 c 0,2.803394 3.003984,5.999935 5.8007812,5.999935 H 54.164062 C 57.387686,56.999456 60,54.418101 60,50.999521 v -0.999989 c 0,3.41858 -2.612314,5.999935 -5.835938,5.999935 H 9.8007812 C 7.0039839,55.999467 4,52.802925 4,49.999532 Z" />
    <path
       id="path19-7-6"
       style="display:inline;fill:#b7a4f1;fill-opacity:1;stroke-width:0.545145"
       inkscape:label="base"
       d="M 58.216797,7.0058593 C 57.925077,7.0333584 57.63606,7.1507945 57.386719,7.376949 L 32,28.999761 6.6132812,7.376949 C 5.5725703,6.4880266 4,7.2870585 4,8.6445133 v 0.9999891 39.3550406 0.999989 c 0,2.803393 3.0039839,5.999935 5.8007812,5.999935 H 54.164062 C 57.387686,55.999467 60,53.418112 60,49.999532 V 48.999543 9.6445024 8.6445133 C 60,7.6471946 59.091957,6.9233619 58.216797,7.0058593 Z" />
    <path
       id="path19-7-6-2"
       style="display:inline;opacity:0.2;fill:#ffffff;fill-opacity:1;stroke-width:0.545145"
       inkscape:label="topshadow (base)"
       d="M 58.216797,7.0058593 C 57.925077,7.033358 57.63606,7.1507945 57.386719,7.376949 L 32,28.999761 6.6132812,7.376949 C 5.5725703,6.4880266 4,7.2870585 4,8.6445133 V 9.6445024 C 4,8.2870476 5.5725703,7.4880157 6.6132812,8.3769381 L 32,29.99975 57.386719,8.3769381 C 58.384084,7.4723199 60,8.3147443 60,9.6445024 V 8.6445133 C 60,7.6471946 59.091957,6.9233619 58.216797,7.0058593 Z" />
    <path
       id="path10"
       style="display:inline;fill:#6841df;fill-opacity:1;stroke-width:0.525531"
       inkscape:label="M"
       d="M 48,15.374909 28.099609,32.323943 c -1.900015,1.688628 -4.153945,1.631225 -6.099609,0 L 4,16.999891 v 0.999989 31.999652 c 0,2.802555 2.9983098,5.999935 5.8007812,5.999935 H 48 V 16.374898 Z"
       sodipodi:nodetypes="cccccssccc" />
    <path
       id="path10-5"
       style="display:inline;opacity:0.2;fill:#ffffff;fill-opacity:1;stroke-width:0.525531"
       inkscape:label="topshadow (M)"
       d="M 48,15.374909 28.099609,32.323943 c -1.900015,1.688628 -4.153945,1.631225 -6.099609,0 L 4,16.999891 v 0.999989 l 18,15.324052 c 1.945664,1.631225 4.199594,1.688628 6.099609,0 L 48,16.374898 Z" />
  </g>
</svg>
