<?xml version="1.0" encoding="UTF-8" standalone="no"?>
<svg
   width="16"
   height="16"
   version="1.1"
   id="svg2"
   sodipodi:docname="proton-mail@16x16.svg"
   inkscape:version="1.3.2 (091e20ef0f, 2023-11-25)"
   xmlns:inkscape="http://www.inkscape.org/namespaces/inkscape"
   xmlns:sodipodi="http://sodipodi.sourceforge.net/DTD/sodipodi-0.dtd"
   xmlns="http://www.w3.org/2000/svg"
   xmlns:svg="http://www.w3.org/2000/svg">
  <defs
     id="defs2" />
  <sodipodi:namedview
     id="namedview2"
     pagecolor="#ffffff"
     bordercolor="#000000"
     borderopacity="0.25"
     inkscape:showpageshadow="2"
     inkscape:pageopacity="0.0"
     inkscape:pagecheckerboard="0"
     inkscape:deskcolor="#d1d1d1"
     inkscape:zoom="18.259961"
     inkscape:cx="8.2146944"
     inkscape:cy="6.1336385"
     inkscape:window-width="1803"
     inkscape:window-height="1121"
     inkscape:window-x="0"
     inkscape:window-y="0"
     inkscape:window-maximized="1"
     inkscape:current-layer="svg2" />
  <g
     id="g5"
     transform="matrix(0.28571429,0,0,0.28571118,1.1428572,2.0857112)"
     style="display:inline"
     inkscape:label="g1">
    <path
       id="path19-7-6-7"
       style="display:inline;fill:#b7a4f1;fill-opacity:1;stroke-width:0.545147"
       inkscape:label="base"
       d="M 49.386718,-3.4225332 24,18.200509 -1.386719,-3.4225332 c -1.0407108,-0.888932 -2.6132811,-0.089892 -2.6132811,1.2675777 v 0.9999998 38.3554097 1 c 0,2.803424 3.00398382,5.999999 5.8007812,5.999999 H 46.164063 C 49.387686,44.200453 52,41.619071 52,38.200454 v -1 -38.3558558 -0.9995537 c 0,-1.3651934 -1.642726,-2.1478875 -2.613282,-1.2675777 z"
       sodipodi:insensitive="true"
       sodipodi:nodetypes="cccsccssssccsc" />
    <path
       id="path10"
       style="display:inline;fill:#6841df;fill-opacity:1;stroke-width:0.525534"
       inkscape:label="M"
       d="M 39.749999,4.7960285 20.099609,21.524733 c -1.900015,1.688646 -4.153945,1.631242 -6.099609,0 L -4,6.2005137 V 7.2005135 38.200459 c 0,2.802586 2.9983098,6 5.8007812,6 H 39.749999 Z"
       sodipodi:nodetypes="cccccsscc" />
  </g>
</svg>
